<svg width="16" height="16" viewBox="0 0 16 16" fill="none" xmlns="http://www.w3.org/2000/svg">
  <path d="M8 1C8 1 9.5 3.5 9.5 6C9.5 8.5 8 11 8 11C8 11 6.5 8.5 6.5 6C6.5 3.5 8 1 8 1Z" fill="currentColor"/>
  <path d="M12.364 3.636C12.364 3.636 10.5 5.5 8 5.5C5.5 5.5 3.636 3.636 3.636 3.636C3.636 3.636 5.5 5.5 8 5.5C10.5 5.5 12.364 3.636 12.364 3.636Z" fill="currentColor"/>
  <path d="M14 8C14 8 11.5 9.5 9 9.5C6.5 9.5 4 8 4 8C4 8 6.5 6.5 9 6.5C11.5 6.5 14 8 14 8Z" fill="currentColor"/>
  <path d="M12.364 12.364C12.364 12.364 10.5 10.5 8 10.5C5.5 10.5 3.636 12.364 3.636 12.364C3.636 12.364 5.5 10.5 8 10.5C10.5 10.5 12.364 12.364 12.364 12.364Z" fill="currentColor"/>
  <path d="M8 15C8 15 6.5 12.5 6.5 10C6.5 7.5 8 5 8 5C8 5 9.5 7.5 9.5 10C9.5 12.5 8 15 8 15Z" fill="currentColor"/>
  <path d="M2 8C2 8 4.5 6.5 7 6.5C9.5 6.5 12 8 12 8C12 8 9.5 9.5 7 9.5C4.5 9.5 2 8 2 8Z" fill="currentColor"/>
  <circle cx="8" cy="8" r="2" fill="currentColor"/>
</svg>